/* XPM */
static char *d17829feae834d2ce8ca240fec90caa9qBJkOYj9kVf5TPAS[] = {
/* columns rows colors chars-per-pixel */
"16 11 102 2 ",
"   c #004A50",
".  c #004D52",
"X  c #005356",
"o  c #005455",
"O  c #005358",
"+  c #005659",
"@  c #0D575A",
"#  c #00585A",
"$  c #005B5C",
"%  c #0B5A5B",
"&  c #0C595B",
"*  c #0A5B5C",
"=  c #0C5A5C",
"-  c #0F5D5D",
";  c #105054",
":  c #145055",
">  c #125457",
",  c #1F5256",
"<  c #15595C",
"1  c #175F5E",
"2  c #185E5D",
"3  c #1F5E5D",
"4  c #2D5557",
"5  c #215A5C",
"6  c #215F5E",
"7  c #285E5F",
"8  c #2F5F5F",
"9  c #37595A",
"0  c #24605F",
"q  c #21645F",
"w  c #29625F",
"e  c #2C5F60",
"r  c #296260",
"t  c #2D6361",
"y  c #2A6561",
"u  c #2D6461",
"i  c #336361",
"p  c #326461",
"a  c #346762",
"s  c #3B6262",
"d  c #3D6362",
"f  c #386462",
"g  c #376863",
"h  c #396863",
"j  c #3C6964",
"k  c #436564",
"l  c #426B65",
"z  c #446A65",
"x  c #426C65",
"c  c #4A6B66",
"v  c #486D67",
"b  c #4B6E68",
"n  c #4D6F68",
"m  c #526E69",
"M  c #556F6A",
"N  c #596D69",
"B  c #53716A",
"V  c #56716A",
"C  c #57746B",
"Z  c #5A736A",
"A  c #58746B",
"S  c #5D736C",
"D  c #59746C",
"F  c #5C766D",
"G  c #64736E",
"H  c #62766E",
"J  c #62786E",
"K  c #64796F",
"L  c #677B70",
"P  c #6A7A71",
"I  c #6C7D72",
"U  c #707E73",
"Y  c #7E7D74",
"T  c #748074",
"R  c #7B8377",
"E  c #7F8378",
"W  c #7E8478",
"Q  c #818579",
"!  c #87877C",
"~  c #86887B",
"^  c #8B897D",
"/  c #8D8B7E",
"(  c #8F8C7F",
")  c #948B80",
"_  c #978E82",
"`  c #998F83",
"'  c #998E84",
"]  c #9B9385",
"[  c #9F9185",
"{  c #A09286",
"}  c #A29487",
"|  c #A39588",
" . c #A69689",
".. c #A8978A",
"X. c #A9998B",
"o. c #AB998C",
"O. c #AF9B8E",
"+. c #AF9C8E",
"@. c #B29E90",
"#. c #B7A192",
"$. c #B8A193",
"%. c #BEA596",
/* pixels */
"1 d ..[ 4 O s  .%. .I < K #...U ",
"8 { $.R Z 9 O.%. .R L , 5 I m J ",
"d { ~ _ j 8  .Q T ` c +   & C j ",
"< k K m + < P j J M # F _ P t ; ",
"  - 2 F O._ f D i =  .| X.} K @ ",
"{ z _ @./ R t 8 : F ( $.o.Q b B ",
"+.H G ( _ L F 0 @ # y X.^ a * X.",
"W I o q Q U v $ m { ) N j A e ! ",
"g i [ / l h $ S X.] ^ V 2 f . u ",
"7 [ $.^ u B r B _ L p n 2 l Y % ",
"Z ^ E x B c 3 X w v 6 # > / O.' "
};
