/* XPM */
static char *b59a40de64c445d1dec4c7b3981064f2rw4wgmCH817HBCdW[] = {
/* columns rows colors chars-per-pixel */
"16 11 53 1 ",
"  c #5C5140",
". c #605342",
"X c #645545",
"o c #695746",
"O c #6B5845",
"+ c #6A5749",
"@ c #6E5948",
"# c #6F5A4C",
"$ c #715B4B",
"% c #735B4C",
"& c #745C4C",
"* c #7A5F4F",
"= c #7A5F50",
"- c #7E6153",
"; c #806153",
": c #826355",
"> c #856456",
", c #886557",
"< c #886658",
"1 c #8C685A",
"2 c #8E685C",
"3 c #936B5F",
"4 c #936B60",
"5 c #936C60",
"6 c #956C60",
"7 c #986E62",
"8 c #9A6F64",
"9 c #9B7064",
"0 c #9E7166",
"q c #A07368",
"w c #A27469",
"e c #A4756A",
"r c #A7766C",
"t c #A8776D",
"y c #AB796F",
"u c #AC796F",
"i c #AE7A71",
"p c #B07B72",
"a c #B17C73",
"s c #B27D74",
"d c #B47E76",
"f c #B88077",
"g c #B9817B",
"h c #BC827B",
"j c #BF847C",
"k c #C3867F",
"l c #C38781",
"z c #C48782",
"x c #C88983",
"c c #C98A85",
"v c #CD8C87",
"b c #CE8D88",
"n c #D28F8B",
/* pixels */
"*-kh+o-knkq&8vkw",
"=hvt3#znkt0X%028",
"-hif>&kyeg<@ $6>",
"$:92@&0,82$6d0-X",
" &*6ld;6-$jkzj8@",
"g<dcsr-*X6sbzu13",
"x75sd06=@&;lp>&k",
"yqO;iw1&2gs1>6=i",
">-gp<>$4lga3&-.;",
"*gba;3-3d0:2&>q$",
"3it<3<*o-1*$oaxd"
};
