/* XPM */
static char *d0f206e323004a71ecadb3b96e3686938zgNMXlSQ7BXZQze[] = {
/* columns rows colors chars-per-pixel */
"16 11 84 1 ",
"  c #494663",
". c #494A65",
"X c #4D4A66",
"o c #4F4F69",
"O c #584B6B",
"+ c #52506B",
"@ c #52506C",
"# c #55536E",
"$ c #54546D",
"% c #575570",
"& c #585771",
"* c #5E5471",
"= c #575870",
"- c #5C5973",
"; c #5B5B74",
": c #5F5B75",
"> c #5B5C76",
", c #5E5D76",
"< c #605B76",
"1 c #665B76",
"2 c #615D77",
"3 c #635E78",
"4 c #665F79",
"5 c #685D78",
"6 c #61617A",
"7 c #656079",
"8 c #65647C",
"9 c #6A617B",
"0 c #6A637C",
"q c #6C627C",
"w c #69647D",
"e c #6D647E",
"r c #6E6780",
"t c #6C6981",
"y c #6B6E84",
"u c #6E6D84",
"i c #706680",
"p c #706981",
"a c #736E85",
"s c #776D85",
"d c #786F87",
"f c #757087",
"g c #717489",
"h c #7B7189",
"j c #7D738B",
"k c #7B758B",
"l c #7E748B",
"z c #7E778E",
"x c #7F7A90",
"c c #80758D",
"v c #82788F",
"b c #837A90",
"n c #837D92",
"m c #7A8093",
"M c #858196",
"N c #878599",
"B c #89879B",
"V c #86899B",
"C c #848D9F",
"Z c #898A9D",
"A c #8B8C9F",
"S c #8C8C9F",
"D c #8A8EA0",
"F c #8792A3",
"G c #8795A4",
"H c #8B90A2",
"J c #8D91A3",
"K c #8C92A4",
"L c #8D94A5",
"P c #8D97A8",
"I c #8A9AA9",
"U c #8D99A9",
"Y c #8D9EAC",
"T c #9096A7",
"R c #919AAA",
"E c #929EAE",
"W c #91A2B0",
"Q c #96A1B1",
"! c #92A4B1",
"~ c #96A4B3",
"^ c #97A6B4",
"/ c #99A9B7",
"( c #98AAB8",
") c #9BAFBC",
/* pixels */
"<6EP$@6E)Ev*l/Eb",
",U(Ms=!)EMz+&xaj",
"6UBKw;ENnLt#.&dw",
"&8lu#&zeja&hHz2o",
" :<hWF7d3&YRERk$",
"IwH^AM6:ofS(WNps",
"~hgDHch2@*5EZ9&E",
"MvO5Nbp&pIFyed,V",
"q4UCe0&fETZs:7X5",
">I(Z7s3sJc5p-0m&",
"aCMisr:+1p,%@AQG"
};
