/* XPM */
static char *_16cc95a07a142ae8c6d00cacb613c03Gsie9BrJT5oJlmRM[] = {
/* columns rows colors chars-per-pixel */
"16 11 49 1 ",
"  c #907463",
". c #927665",
"X c #937867",
"o c #967B69",
"O c #987C6A",
"+ c #987D6C",
"@ c #9B806E",
"# c #9E816F",
"$ c #9D8270",
"% c #A18573",
"& c #A28774",
"* c #A48775",
"= c #A48977",
"- c #A78B79",
"; c #A88B79",
": c #AA8D7B",
"> c #AB8E7C",
", c #AC8F7D",
"< c #AB907E",
"1 c #AD907E",
"2 c #AD9280",
"3 c #B09382",
"4 c #B19483",
"5 c #B39684",
"6 c #B69987",
"7 c #B69A88",
"8 c #B89B89",
"9 c #BA9D8B",
"0 c #BCA08E",
"q c #BFA391",
"w c #BDA491",
"e c #BEA694",
"r c #C0A593",
"t c #C1A694",
"y c #C3A895",
"u c #C4A996",
"i c #C2AA98",
"p c #C5AB99",
"a c #C7AD9A",
"s c #C7AF9D",
"d c #C8AE9B",
"f c #C8AE9C",
"g c #CAB09D",
"h c #CBB3A1",
"j c #CCB3A0",
"k c #CDB5A3",
"l c #CFB7A4",
"z c #CFB8A6",
"x c #D0B8A6",
/* pixels */
"%&gpoo&fzf8#6kg9",
"%pk03+sxf06o#716",
"&aqu;$d09u>O #4:",
"@=6<+#7:61#4t6&X",
" $%4st=4&#adgd6+",
"y:tht0&%X4tkgq13",
"j52ty75%O$-gr;#s",
"09+=q9,#1yw>:4%q",
":=iw>-#2fpr2$&.=",
"$ylr=2&2y7=1$;7#",
"2q0,2:$o*1%+orke"
};
