/* XPM */
static char *d3dbbbcacd064e77d63c0621c1277b00pYBgzmDVsH4UrWBy[] = {
/* columns rows colors chars-per-pixel */
"64 64 204 2 ",
"   c #183739",
".  c #163A3A",
"X  c #193A3B",
"o  c #153736",
"O  c #1B433D",
"+  c #25433E",
"@  c #193F40",
"#  c #1B4544",
"$  c #1C4946",
"%  c #1D474B",
"&  c #174948",
"*  c #1C4A4D",
"=  c #174645",
"-  c #1E524D",
";  c #1E4650",
":  c #1D4C51",
">  c #1E5355",
",  c #1F5659",
"<  c #1E585C",
"1  c #234442",
"2  c #214943",
"3  c #21474D",
"4  c #224B4D",
"5  c #2A4E4E",
"6  c #2A4A47",
"7  c #324E49",
"8  c #354E45",
"9  c #24514E",
"0  c #2B524D",
"q  c #33544D",
"w  c #3A554C",
"e  c #224D52",
"r  c #2B4F51",
"t  c #245455",
"y  c #2A5454",
"u  c #245956",
"i  c #2C5956",
"p  c #25565A",
"a  c #2A565B",
"s  c #24595B",
"d  c #2B5A5B",
"f  c #335452",
"g  c #395652",
"h  c #355A55",
"j  c #3B5C56",
"k  c #345D5C",
"l  c #3B5E5A",
"z  c #2E6256",
"x  c #3F6057",
"c  c #35625D",
"v  c #3A625D",
"b  c #39655B",
"n  c #1F5C61",
"m  c #245C61",
"M  c #2B5D61",
"N  c #285660",
"B  c #345E61",
"V  c #3A5E63",
"C  c #236061",
"Z  c #356362",
"A  c #3A6361",
"S  c #376960",
"D  c #425C57",
"F  c #415F5C",
"G  c #43635D",
"H  c #4A635E",
"J  c #54645D",
"K  c #446562",
"L  c #4A6662",
"P  c #446965",
"I  c #4C6A65",
"U  c #4A6668",
"Y  c #476C6B",
"T  c #4D6C69",
"R  c #556664",
"E  c #526B65",
"W  c #596E66",
"Q  c #526E6B",
"!  c #5A6E6B",
"~  c #4D726D",
"^  c #557167",
"/  c #54726B",
"(  c #5A746E",
")  c #4F6C70",
"_  c #5A6F71",
"`  c #536F70",
"'  c #557472",
"]  c #5C7572",
"[  c #557875",
"{  c #5D7A74",
"}  c #5E7D79",
"|  c #676E67",
" . c #6D7265",
".. c #64736E",
"X. c #6D756C",
"o. c #657A6D",
"O. c #6D7A6E",
"+. c #737266",
"@. c #72766C",
"#. c #73796E",
"$. c #7A796E",
"%. c #647573",
"&. c #6C7672",
"*. c #657B74",
"=. c #6D7B73",
"-. c #657D79",
";. c #6B7D7A",
":. c #727772",
">. c #717B73",
",. c #7B7D73",
"<. c #727E79",
"1. c #7A7E7A",
"2. c #817E73",
"3. c #827F78",
"4. c #668077",
"5. c #6C8175",
"6. c #65817C",
"7. c #6B817B",
"8. c #7D8175",
"9. c #74847C",
"0. c #7C837B",
"q. c #74887F",
"w. c #828276",
"e. c #83847B",
"r. c #89867B",
"t. c #848A7D",
"y. c #8C8A7E",
"u. c #908A7E",
"i. c #678180",
"p. c #6F8280",
"a. c #758580",
"s. c #7B8682",
"d. c #758B85",
"f. c #7C8982",
"g. c #798F89",
"h. c #838B82",
"j. c #8D8D83",
"k. c #8C8D8A",
"l. c #828A85",
"z. c #938E83",
"x. c #988F86",
"c. c #889287",
"v. c #85918C",
"b. c #8B928B",
"n. c #89998F",
"m. c #939186",
"M. c #999687",
"N. c #9F9886",
"B. c #95958B",
"V. c #9C968C",
"C. c #95988B",
"Z. c #9D998D",
"A. c #899893",
"S. c #9B9791",
"D. c #969C95",
"F. c #9C9C94",
"G. c #9C9E98",
"H. c #929F98",
"J. c #A39687",
"K. c #A49987",
"L. c #A4968B",
"P. c #A9968D",
"I. c #A4998D",
"U. c #AA9A8D",
"Y. c #B19E8F",
"T. c #A29791",
"R. c #A29A91",
"E. c #A39B92",
"W. c #AB9D93",
"Q. c #A29E99",
"!. c #B29F93",
"~. c #9FA094",
"^. c #97A299",
"/. c #9BA19B",
"(. c #92A093",
"). c #A2A196",
"_. c #ABA396",
"`. c #A3A49A",
"'. c #ACA59A",
"]. c #ACA99E",
"[. c #B5A296",
"{. c #B2A395",
"}. c #B9A596",
"|. c #BCA997",
" X c #B4A59A",
".X c #BDA69A",
"XX c #BEA79C",
"oX c #BBA69C",
"OX c #B6AA9C",
"+X c #BDA99D",
"@X c #BCAA9C",
"#X c #B7A895",
"$X c #BAB29F",
"%X c #ACAAA2",
"&X c #BBA7A2",
"*X c #B5ACA2",
"=X c #BBACA2",
"-X c #B7AFA9",
";X c #B4B1A4",
":X c #BBB1A4",
">X c #B5B8AF",
",X c #C0AA9D",
"<X c #C1A7A0",
"1X c #C2AAA0",
/* pixels */
"z S c Z A c d t t s s & %.F.V.K.N.K.L.I.L.P.P.T.F.... e * : % : > s t a a p p p t u s * J F.I.I.L.L.L. X,XoX+XOXOX{.L.I.L.L.P.L.",
"b c Z Z A k d p s s s & *.~.L.L.K.I.I.U.P.P.L.E.Q.... e : * : : s s p a a p p s d u s 4 R D.I.L.I.I.U.[.,XoX+X@X@X{.L.L.P.L.I.L.",
"c c A A A V d p p , m & %.F.L.P.L.L.L.P.L.L.L.T.G.... * : * : : p t p a N a p p p p s e R F.V.I.L.P.P.[.XXXX,X+X+X#XL.L.L.P.P.P.",
"A v k Z V Z d , s p n & =.Q.I.L.P.L.P.P.L.U.E.E.G.... * * * : : p s p p N p p p p p p e R G.I.L.I.P.P. X+XoXoXoX+X[.L.L.P.L.P.P.",
"k A Z Z Z Z s s s s C & =.E.P.P.P.L.P.P.P.I.L.V.G.... e * * * * t d p p p s s s s s C t R F.I.L.L.K.L. X=X+XXX+XoX[.L.I.P.P.P.P.",
"A A Z Z Z Z - = # # $ O X.I.P.J.P.L.E.L.I.I.E.Q.G...  # @ # # $ d p t p N p * $ O O # 1 J V.P.J.L.K.I.{.@X@X+X+X=X{.I.E.E.E.E.E.",
"i k B i i h ] 9.<.<.<.:.z.{._._.{.{.W.z.y.t.t.h.h.O.H U U L U K e t e e e # ] g.f.h.h.e.z._.{.{.{.{.{.{.!.!.!.!.{.I.r.t.t.t.t.t.",
"p p t i i f b.`.Q.Q.Q.E.!.+X@X@X@X=X_.,.X.O.X.@.@.>.;.-.;.;.p.] # * # e : . v.>X;X=X:X=X&X=XOX+X|.+XoXU.L.L.L.L.L.j.@.X.O.O.O.X.",
"p p p t t q c.R.V.E.P.J.Y.|.@XOX#X@X'.8.=.=.:.>.@.>.=.;.=.=.*.] # * e * : o c.;X{.@XoX+XoX+X@X@X}.|.@XU.L.L.P.I.L.m.@.>.O.>.=.>.",
"p p p t t q c.I.L.P.L.P.{.|.@X+X|.@X'.,.=.=.=.:.,.>.=.;.=.=.;.( 4 : * * e o c.*X@X|.oX,X|.|.@X@X@X|.@XU.L.I.L.L.E.m.X.>.=.=.=.=.",
"p p s p t f b.E.P.P.L.L.!.|.@X@X}.+X].,.=.=.=.=.@.#.=.*.=.=.=.( % * * * e   k.=X@X+XoX+X@X@X|.|.oXoXoXW.L.I.I.E.I.k.@.>.=.=.O.=.",
"p p s p t f b.E.P.P.P.L.!.+X=X+X+X=X].,.X.O.>.>.@.>.*.4.*.*.5.] & : * * :   k.=XoX&X+X&X@X@X+X+X+X+X@XW.I.I.L.I.Q.j.@.@.X.O.O.O.",
"p p p p p f b.E.L.P.I.I.I._._._._.'.Q.t.8.,.,.,.8.>.( { { ] { ~ * : e : > . l.*X XoXoXoX X_._._._._._.I.C.C.B.B.B.j.e.,.2.,.,.,.",
"p p p p p f b.E.P.E.I.I.u.$.,.,.$.$.e.m.Z.Z.Z.Z.F.>.D x G l x v t p t p s # l.W.I.P.L.P.x.,.$.#.#.#.,.@.@.#.#.#.$.t.V.V.V.L.I.Z.",
"p p p p t f k.U.L.I.I.R.y.X.=.=.>.@.,.V.I.K.K.Z.G.=.f A A A v k t p p p s # 0.I.K.K.J.I.M.#.@.>.>.=.>.>.>.>.#.>.@.e.Z.L.I.I.I.V.",
"p p p p u y k.U.L.I.L.E.y.X.;.=.=.O.,.Z.L.K.I.L.F.<.f A Z A A c t p p s m # 0.I.K.K.K.K.m.>.>.=.=.=.=.=.=.=.O.O.X.e.E.I.I.L.I.L.",
", s p p p 0 b.W.J.I.L.I.j.X.;.=.O.O.,.V.I.I.P.L.Z.;.h Z c Z A c t s , s m # f.E.L.J.P.I.m.>.>.=.O.O.O.=.=.=.>.#.X.e.E.E.I.I.I.L.",
"s s t t t y v.E.E.L.V.F.j.>.=.=.O.O.,.V.F.L.P.L.G.=.q Z Z Z A A p s p p < # s.Q.I.I.I.K.B.>.=.=.=.=.=.=.=.=.>.>.O.e.E.L.L.L.I.V.",
"p p a a t h v./.F.F.G.^.h.>.=.=.O.>.1.D.G.G.E.G.^.*.h Z Z c A A t p a p p 4 s.G.Z.I.I.Z.b.;.;.*.*.*.=.<.<.=.=.>.O.h.F.G.F.F.F.F.",
"p p a a a y Q ! %...( ( ..:.>.=.=.:.=.&.%.&.X...%.I y d d d i i i t p a a 5 %.h.e.e.t.t.9.R E E I E R %.:.=.=.=.=.=.&.X.&.&.&...",
"p p p p d t t % 3 $ $ $ G ;.#.#.;.;.] G f h g g l h t s p p p t u t t p s 4 Q ;.&.X.=.=.( j j k c c F ] ;.=.=.=.=.W g q g g g g ",
"p p p p s p p s p s s t L 7.O.#.=.;.*.K v c A A Z B p s p p p p u u t p p y Q ;.;.=.;.;.{ x v c Z Z l ] ;.=.=.=.5./ x v v v A A ",
"p p p p p p s p a a s t U ;.=.<.=.;.*.G v c c Z A i t a a p t t p s p p t t Q ;.=.=.>.;.{ x v c A v j ( *.=.=.=.4./ j v A Z Z c ",
"p p p p p p p t p p s t P ;.=.=.=.;.*.F x v v A A k i i i d t d s M s d d y / *.=.=.=.=.( l v v v x l { *.=.*.*.*.] l v A Z Z Z ",
"t p p p p p p p t s , > Y 6.;.;.=.7.%.G j v c c c i # # % * & & * > : - $ 2 / 4.*.7.=.9.] l v k h l j { ;.;.;.;.;.] l A A Z Z c ",
"t t p p t p d d d d p p A [ ( ( ] ( ^ I L L L L P Q ` Q Q / Q / T U P L I L / ' ] ] ] ] / L L L L L L / ( ] ] ] ] ) k B k k c c ",
"* : : * * e k A v v A c i y y y 0 5 h ] -.;.;.;.=.A.%X-X%X*X%X%XE.F.F.F.F.A.' $ i e y y F { -.;.;.;.{ x 0 0 0 i y y t a a d t d ",
"* * : : * 4 k v v v x A k t u u d t f } ;.=.=.<.X.V.=X=XoX+X+XoXP.P.P.L.E./.' & d p s t l ;.;.=.=.;.-.l t u s p p p p d t p t d ",
"* * e : : : k A A A k A d t u u t t i } ;.=.=.:.X.B.*X@XoX+X+XoXP.E.P.I.P.G.' $ t t p t l ;.=.=.=.;.-.k t p s p s p p p t p p M ",
"* * : : : * Z A c Z A A M t s s s p i { =.=.=.>.@.C.=X+X|.|.oX XL.I.L.L.P.Q.] = d p p t j %.=.=.=.;.-.l t p s p p p p p p p t a ",
": : : : : * c Z Z c B Z M s s s s p h { ;.=.=.O.X.C.@XoX@X@X@XoXL.L.I.I.I.S.' * p s p i l -.;.=.>.;.-.x i d p p p p t u t p p M ",
". . . . X . k Z Z Z A A i 4 4 2 4 1 q ..>.@.#.@. .M.;XOX@X@XOX XK.Z.I.Z.E.G.' # p p p t l 6.;.-.*.;.-.A e d p a t t y y 0 t y i ",
"b.C.m.B.D.n.L k c Z Z h %.l.h.h.t.t.j.F.).E.W.I.I.M.w.t.t.t.t.t.8.8.8.8.0.9.Q h k d Z k c k k v v c k a e e e e # k ' ( ( ( ] / ",
"$X:X+X+X=X].! k A c Z h <.R.E.I.I.I.U.+X=X+X,X+X:XM. .X.&.=.X.O.O.O.O.=.=.;.E l A Z Z Z k i i t t t i e ; : e 4 # x -.;.;.;.;.;.",
"@X@XoXXX=X%X! h v c Z f >.Q.I.L.L.L.P.oX+XoX|.|.@Xz. .>.:.=.=.=.O.O.=.=.=.*.I l v c Z Z B i t i t t a e ; ; 3 4 # l -.;.=.=.=.=.",
"@X+X<XXX@X].! l v v Z h >.F.L.T.L.P.W.&X&X@XXXoX=XM.@.>.>.=.=.=.=.=.=.<.;.;.I j v c Z Z Z i a d u d a e % e 4 4 # l -.=.=.=.=.>.",
"XXXX<XXX@X].! g v v c f <.G.S.E.V.E.E.&X&X&X+X@X=Xz.@.>.>.>.>.=.=.>.O.=.;.;.I g x A v A k t t t t t t : * : 4 4 # l 6.*.%.*.=.=.",
"1X,XXX+X@X].W g l j l q ;./.D.D.^.G.Q.*X*X*X=X=X:Xz.+.@.@. .O.=.>.>.=.=.*.-.I j l l l k k y i t t t a e * : * % # v 6.6.6.4.;.;.",
"[.[.[.[.{.'...L I I T L %.d.g.d.d.a.f.D.`.F.Z.R.R.z.w.w.r.e.e.0.>.>.=.;.=.*.( I I I I T P h i i d i d t : > e e * i ~ ~ / / / / ",
"J.P.L.L.K.Z.<.=.*.;.;.6.E + 2 # 1 + 8 ! >.X.@.@.+.y.I.E.I.I.R.B.>.=.=.;.=.;.*.*.;.;.;.6.] x c Z Z Z Z d p p p p p t i y y y r 5 ",
"L.I.K.I.I.Z.,.X.=.=.-.6.Q 0 i u i y g *.*.=.>.#.+.y.E.L.L.P.L.C.#.>.=.>.=.=.;.=.=.;.=.;.] l v c k A A d t p p p t p p a p a a d ",
"I.I.I.I.L.Z.,.>.=.=.=.;.T 0 u u u y h { ;.;.=.>.@.j.E.I.I.P.I.V.>.>.=.=.=.=.=.=.=.<.=.;.] F v Z A A B d t p p p s s p a p s p p ",
"I.K.L.L.L.V.,.>.=.=.=.;.T 5 p p p t h { ;.=.=.=.X.j.E.L.L.L.L.M.#.O.O.O.=.=.=.=.=.=.=.;.] l v Z Z Z Z d t p t p p p p d p s p p ",
"R.Z.I.I.E.L.,.X.=.=.=.;.T 0 a p t t h } 6.;.=.;.=.k.R.L.I.I.L.C.#.>.>.>.=.=.=.=.=.;.*.4.] x v Z Z Z Z i t i i i t i i y y y i i ",
"V.C.Z.V.V.V.8.>.=.=.=.*.I y i a a y k [ -.-.-.4.*.l.G.Z.Z.Z.Z.C.O.=.=.=.=.;.=.%.-.-.-.-.] v Z Z Z Z k h y y y 0 0 0 q 7 7 7 7 q ",
"8.8.w.,.3.e.>.=.=.=.=.;.Q h k B Z k k P L L L L G ..0.,.8.,.8.,.>.=.>.=.;.=.W H L L L P K y i p d d i Y [ [ ] ] ( q.H./.^.^.H.(.",
"X.O.@.X.@.@.=.=.=.=.>.;.^ l A Z Z Z k v l l l l j ! :.@.#.O.>.O.=.=.=.=.;.-.I g l l k k k t t t t t r ] i.;.;.;.X.b.-X-X*X*X*X;X",
"=.=.O.=.>.=.=.=.=.=.=.;.^ h Z Z Z Z v v l x x v l / ;.=.=.=.=.=.=.=.<.=.*.-.T l v v A A Z i p t t a 5 ] -.;.=.>.X.j.*X@XoX|.@X@X",
"o.O.O.O.=.=.=.=.o.7.=.;.^ l A Z c Z v A c v v v j / 4.=.=.;.=.=.O.O.=.=.=.;.I j c c A A B i d t s u y ' -.=.=.>. .j.OX&XoX,XoXoX",
"5.5.>.>.<.=.=.=.*.%.;.;.^ j k A v A A K A A x x x ^ -.=.=.=.=.=.O.=.=.=.;.;.I k A Z Z A c t i d u u 0 ] ;.=.>.>.@.j.*XOXoX+XoX|.",
";.;.;.;.;.;.*.*.4.4.;.;.W 8 q q 0 f f f f h g w 8 ^ 4.7.*.5.5.=.5.*.;.;.;.-.T v A Z Z Z c y 0 9 9 0 6 Q =.X.@.@. .y.;X:X=XOX@X+X",
"_ _ _ ! ( ( E T / T / U =.q.q.q.9.a.a.;.;.;.=.;.=.o.Q / ^ ( ( ^ ^ / ! ! / ' A h d d k i k P P P P L H s.b.m.m.z.m.m.V.C.V.Z.Z.I.",
"k k k l l g y t t 4 t 1 <.;X;X*X;X*X*X).G.G.F.G./.;.q l v k h x k l l l l v i t t p a y V } 6.-.;.;.>.).*XOXOXOX*XZ.@.X.X.#.X.X.",
"A A A A A v p s t p m # 1.*X=XOX@XoX XI.V.I.L.T.F.<.g A Z Z A A Z A A v c Z d p p p a y G -.;.=.=.>.@.).*X@X@X@X=XR.@.>.=.=.=.=.",
"A k Z Z A c p s p p m # 1.=XOX@X@X@XOXI.L.E.I.I.G.>.q v c c v A A A A A c Z d p p p p y x -.*.=.=.>.@.).=X@X|.XX&XE.+.#.O.=.=.>.",
"v v A Z Z c d p p p s # 0.*X=X@X@X@XOXI.L.I.L.L.Q.<.q b c c v v A A A v c c d t p p a y l -.;.=.:.>.@.).=X@XXXXX&XE.@.#.=.=.=.=.",
"b v k Z A Z y y 0 t u O ,.:XOX@X}.@X@XI.I.P.P.I.E.<.f c Z Z Z A k v v c c c d t p p d r F -.;.=.=.=.#.).=X@X+X@X=XR.@.>.=.*.=.=.",
"v k A Z Z c l j j j h 7 2.OXOX#X@X|.OXK.L.V.V.V.F.;.h Z Z Z Z A K G G G v v i t p a a y A ] %.%.*.=.=.D.].'.OX X XV.>.=.=.*.=.=.",
"t d p p p i A.`.~.`.`.Q.W.P.E.E.I.I.Z.2.,.,.,.,.9.W h A Z Z Z A { %.%.*.*.{ Y c Z Z Z k c K G G G G D =.0.,.2.$.,.,.X.=.=.=.=.=.",
"p s p d p 0 /.=X:X@XoX=X!.P.P.I.I.I.C.,.@.#.#.X.=.E v A c Z c K ;.=.=.;.;.-.T c Z Z Z Z Z c v c c v j ( =.X.#.@.#.#.>.=.=.=.=.=.",
"s t p p t h F.@X XoX|.+X!.L.I.L.I.I.V.,.>.>.>.>.<.Q l v c A v L *.=.=.;.=.-.I k Z Z Z Z A c v v c v l ] ;.>.>.>.=.O.=.O.=.=.=.=.",
"p s p d p f F.+X+X+X+X|.!.P.L.L.L.I.V.,.=.=.>.=.*.E l v A A k G *.=.>.:.=.;.T l v Z Z A A v A c c v l ] ;.=.=.O.=.=.;.;.=.=.=.X.",
"p p a a p f ~.+XoXXX+X+X{.L.L.I.P.E.V.,.=.=.=.=.;.Q l v Z c v L *.=.=.=.=.;.I l c c Z A A A Z c Z A l ] ;.<.>.=.=.=.=.=.X.O.>.O.",
"p p a a p q ).@XoXXX+X@X_.L.L.J.P.P.V.,.=.=.=.;.;.E k c A Z A G *.O.=.:.:.;.E j A c A v A A Z Z Z A l ] ;.<.=.=.=.;.=.<.O.>.#.X."
};
