/* XPM */
static char *_93602a860874e77cbc67dc2c776c974a22s3nvksRvVP6Ng[] = {
/* columns rows colors chars-per-pixel */
"64 64 157 2 ",
"   c #55473A",
".  c #5C473A",
"X  c #564B3C",
"o  c #5C4C3D",
"O  c #59503F",
"+  c #604C3E",
"@  c #5C4F41",
"#  c #575141",
"$  c #5B5242",
"%  c #5F5848",
"&  c #624F41",
"*  c #6E4F44",
"=  c #625344",
"-  c #6C5346",
";  c #645748",
":  c #6D5649",
">  c #665A4A",
",  c #6C5A4C",
"<  c #71564A",
"1  c #725B4D",
"2  c #795B4E",
"3  c #6F5F50",
"4  c #745E51",
"5  c #7B5E52",
"6  c #766254",
"7  c #7B6355",
"8  c #776358",
"9  c #7D6559",
"0  c #7D685A",
"q  c #816156",
"w  c #83665A",
"e  c #8A665D",
"r  c #84695D",
"t  c #89695F",
"y  c #866C60",
"u  c #8B6D62",
"i  c #946E64",
"p  c #996E65",
"a  c #9B6F68",
"s  c #8D7165",
"d  c #8F7468",
"f  c #937166",
"g  c #997167",
"h  c #96756A",
"j  c #9A746B",
"k  c #95796D",
"l  c #9A786E",
"z  c #9D7A70",
"x  c #A0756D",
"c  c #A2796F",
"v  c #A47C73",
"b  c #A97D75",
"n  c #B07F78",
"m  c #A58077",
"M  c #AC8077",
"N  c #A68379",
"B  c #AC837A",
"V  c #AC887C",
"C  c #B3857D",
"Z  c #B9867F",
"A  c #B3897F",
"S  c #B8897F",
"D  c #AD8A81",
"F  c #B48781",
"G  c #B98780",
"H  c #B78882",
"J  c #B58A83",
"K  c #B78B82",
"L  c #B68981",
"P  c #B68E82",
"I  c #B28B84",
"U  c #B78A84",
"Y  c #B38D84",
"T  c #B58D85",
"R  c #B48C84",
"E  c #B78C85",
"W  c #B48E85",
"Q  c #B48F87",
"!  c #B58B82",
"~  c #B98881",
"^  c #B88981",
"/  c #BA8881",
"(  c #BA8A80",
")  c #BB8B81",
"_  c #B98883",
"`  c #BA8982",
"'  c #BB8982",
"]  c #B98A82",
"[  c #BB8A83",
"{  c #BA8B83",
"}  c #BE8981",
"|  c #BC8A81",
" . c #BD8882",
".. c #BE8983",
"X. c #BD8B82",
"o. c #BC8A83",
"O. c #B88C83",
"+. c #BA8E83",
"@. c #BB8884",
"#. c #BA8984",
"$. c #B98A84",
"%. c #B88B85",
"&. c #BB8A85",
"*. c #BA8B85",
"=. c #BD8884",
"-. c #BC8985",
";. c #BC8B84",
":. c #BD8A86",
">. c #BB8C84",
",. c #B98C86",
"<. c #BB8C86",
"1. c #BA8D87",
"2. c #B98E87",
"3. c #BC8D85",
"4. c #BE8D86",
"5. c #BF8D86",
"6. c #BD8E86",
"7. c #BA8A83",
"8. c #B68F88",
"9. c #B78E88",
"0. c #BD8E89",
"q. c #B59087",
"w. c #B69087",
"e. c #BC9086",
"r. c #B69188",
"t. c #BF938A",
"y. c #BC928A",
"u. c #BC988C",
"i. c #C28D87",
"p. c #C08E87",
"a. c #C18D87",
"s. c #C08F88",
"d. c #C18F88",
"f. c #C38E88",
"g. c #C48F89",
"h. c #C18F88",
"j. c #C09187",
"k. c #C19089",
"l. c #C29089",
"z. c #C3918A",
"x. c #C4928B",
"c. c #C5938C",
"v. c #C6948D",
"b. c #C7958E",
"n. c #C5938D",
"m. c #C8938D",
"M. c #C9948E",
"N. c #CA958F",
"B. c #C8968F",
"V. c #C9948E",
"C. c #C4988F",
"Z. c #C69690",
"A. c #C99790",
"S. c #CA9691",
"D. c #C69992",
"F. c #CB9992",
"G. c #CA9992",
/* pixels */
"6 6 7 7 7 7 , , , , , : h O.%.H F P Z [ G [ ;.[ I r   $ # $ $ $ > , , , , , 1 , : , , - u Y %.[ [ [ o.k.M.V.M.M.M.d.G [ [ [ [ Z ",
"6 6 6 7 7 7 , , , , , - g %.H H A O.S o.[ o.%.H 8.r   $ $ $ $ % , , , , , > , , , , , - u E %.[ [ [ [ k.M.V.M.M.M.g.o.[ [ [ [ Z ",
"6 6 7 7 7 6 , , , , , - h O.H 3.S [ G o.[ ;.%.H E r   $ $ $ # % , , , , , > , , , , , - y E %.;.[ [ [ k.M.b.M.M.M.d.G G [ [ [ Z ",
"7 7 7 7 7 7 , , , , , - h O.Z o.o.o.G o.[ H H H E y . $ $ $ $ % , , , , , , , 1 , , 1 - u E %.;.o.[ o.x.S.b.M.V.M.d.[ [ [ [ [ H ",
"7 7 7 7 9 7 , , 1 1 1 - g 3.G [ o.G o.o.O.H U E D r . $ $ $ $ $ , , , , > , : 1 1 , 1 - e E [ [ [ [ o.x.S.b.M.b.b.p.G [ [ [ %.H ",
"7 6 7 7 9 4 1 : - - - * i [ [ [ G Z o.G H F E E q.r . o o . o $ > , , 3 , , : < - - - * e L [ G [ [ o.k.b.n.b.b.F.k.G [ O.O.O.H ",
"4 4 1 4 4 4 f k l l j h B k.d.p.k.d.3.B b b m b m f 7 w w w 9 8 ; % = = = = f v b v v v B y.k.d.p.d.p.d.p.3.d.d.d.Z b b b b b b ",
", , , 1 : 4 V r.E O.r.U k.b.b.M.M.b.3.l g h j h j j h k k k k s X $ o @ $ . D D.D.D.D.D.D.D.b.S.M.S.x.p.[ Z [ G [ b j j j j j g ",
", , , , , 1 B E H H H [ d.M.V.b.n.D.y.l h k j j j j j f j j j u X # $ $ $ . B G.c.n.b.n.n.M.b.V.V.V.n.a.[ [ [ [ [ B j j j j j j ",
", , , , , 1 B %.%.%.[ [ p.M.V.M.Z.S.y.l h h j l l j j h j j j u $ $ $ $ $ o B D.b.S.M.M.M.M.M.M.M.S.V.3.[ [ ;.[ O.B j l j h j j ",
", , , , , 1 B %.[ [ [ G 3.M.M.V.n.Z.k.x j j j j j j h h j h h s @ $ o o $ + B D.b.n.M.V.V.V.M.M.V.b.x.;.G A [ H H b j j l j j j ",
", , , , , 1 B %.[ [ [ [ d.S.S.M.S.S.k.j a j l j j j j k h k k s @ $ $ o o o B D.Z.Z.M.S.M.V.M.M.S.S.b.3.[ O.O.H O.B j j j j j j ",
", 1 , , , 1 B [ G [ [ [ 3.3.0.0.d.3.[ v c l v x x j u s f f s r = = = = $ & m Z.k.k.x.b.x.3.3.y.3.O.O.H C C C C B b c x x c c l ",
", , , , , 1 B [ G o.[ H b j j j j j v C H A H H O.j 7 7 7 7 7 7 , > , , , - m 1.[ ;.[ [ n x j j j l j j j j j j j b H H H H H C ",
", , , , , 1 B o.G o.3.O.B j j j j p x A P H H O.U h 5 6 9 7 7 6 , , , , , : b %.G [ G [ B j j h j j j j j j j j p b O.H [ [ [ Z ",
", , , , , 1 B o.G G [ O.m h h h j j l A H O.[ H E j 5 7 7 7 7 7 , , , , , : b ;.G o.o.3.B j h h h h j j j j j j g b O.H [ [ [ Z ",
"> , : , , 1 B %.G ;.%.U b h k h j j l F H O.[ Z F h 2 6 8 7 6 6 , > , , , : v 3.[ o.G ;.B j j j h k j j j l j j h b F H H [ ;.Z ",
", , , , , 1 V 8.U %.[ O.B j h h j j l F P H [ O.E j 2 6 6 6 7 6 , , , , , : b 3.[ o.G %.B j j j h k h h j j j j j m E E P H [ Z ",
", , , , , 5 N q.Y E E E m j h k h j l D P H H [ F h 5 7 6 6 7 5 , , , , , 1 v U H U H U B j h k k h h j j j j j h m D Y E F F C ",
", , , , , 1 r u y u t e i j j j j j j g i g i i g w 1 1 1 1 1 1 1 1 , , , : h b v b v b j r e r r r t h j j j j j h i i f i f i ",
", , , , , , , : - : - - q j l h j j f q 5 5 5 2 5 1 : , , , , , , 1 , , , : u j h j h j u 5 5 5 5 5 q f j j j j j u 5 5 5 5 5 2 ",
", , , , , , , , , 1 1 1 w h j j j h f q 7 7 7 7 7 4 , , , , , , , , , , , : u k h j j j u 7 7 7 7 7 q f j j j h h u 5 7 7 7 6 6 ",
", , , , , , , , , , , : r k h j l j f q 5 7 7 7 7 1 , , , , , , , , , , , 1 u j j j h j u 7 7 7 7 7 7 f j h k k h u 5 7 6 7 7 7 ",
", , , , , , , , , , , , w k h j j j h q 7 7 7 7 7 6 1 , , , , , , , , , 1 1 u j h h h k u 7 7 7 7 7 q f k h k h k u 5 6 6 6 6 6 ",
", , , , 3 : , , , , , , r k j j h k f 7 4 6 6 8 6 1 - - : : - : = , : : - - u k f k k k u 5 5 7 5 7 7 f k k k k k u 5 7 7 7 6 6 ",
"> > > ; , ; , 4 , 1 1 1 9 u u u u u u r r w 0 r 9 y u u u u y y r r r r e y u u u u u r t r w r w r r r r u s u u r 5 7 6 6 6 6 ",
"$ $ $ @ = = 4 8 6 8 6 6 4 1 < 1 < < 5 s k k h k j F Z.C.C.Z.Z.t.F Y E E Y D r - 1 - 1 : 7 h f f k f s 6 < < < : 1 < : 1 : 1 , 6 ",
"$ $ $ @ @ & 6 6 7 6 6 6 4 , , , 1 - 1 f j h h j i H G.S.V.S.S.n.;.%.%.O.H E r : 1 , 1 : 7 k h k k k f 5 : , 1 1 1 , 1 1 , 1 , 6 ",
"$ $ $ $ $ = 6 6 6 7 7 6 4 , , , , : 1 f j j j l i H S.M.V.V.V.g.G o.Z ;.H Y r - , , , : 7 h h h h f f 1 , , , , , , , , , , : 6 ",
"# # $ $ $ $ 6 8 7 7 7 7 1 , , , > , 4 f j j j j g H b.b.M.S.V.V.o.;.Z ;.%.F r : , , , , 7 h j j j h h 5 , , , , , , , , , 1 , 6 ",
"$ $ $ $ O $ 6 8 6 6 7 7 4 , , , , , 4 f j j j j j H b.b.b.M.x.k.G [ [ [ %.E r - , , , : q h j j j j h 5 , , , , , , , , , , : 6 ",
"o o o o o + 6 6 6 7 6 7 5 < : , : 1 2 g j j j j p H C.C.C.b.b.c.H H O.Z H E r - , , 1 : 7 h h h h k f 6 , , , > > , , , , , : 6 ",
"V F F H F D w 7 4 9 7 5 f B B B m B B O.p.p.3.3.3.B x v v v v v l l x c v k r 4 6 6 6 7 6 4 4 4 4 4 1 ; $ $ $ % o 6 s u s s s s ",
"F.F.S.S.S.t.t 7 6 6 7 5 j w.[ [ O.O.3.M.S.M.M.S.S.C j j j j j j j j j j j h r 7 7 6 7 7 6 , , , , , , = O $ $ $ o 8 k k j j j l ",
"x.x.x.n.S.C.t 6 0 8 7 5 j O.G [ [ [ [ n.V.V.n.b.D.B i j h j j j j j j j j h r 7 7 7 7 7 6 , , , , , , $ o $ $ $ X 6 k k j h h k ",
"M.m.V.V.b.C.t 6 6 8 6 5 j P [ [ [ [ [ n.V.V.M.b.Z.B j l j h j h h j j j j h w 6 7 6 7 6 6 , , , , , , = $ $ $ $ o 9 k k j j j j ",
"M.c.M.M.b.C.t 7 7 0 7 5 j E U H %.%.;.n.V.S.S.b.D.B g j g g j h h h j j j h w 6 7 7 7 7 4 , , , , , , = $ $ $ $ X 8 k h j j j j ",
"b.b.M.M.b.y.e 5 6 7 7 5 h r.q.E E O.O.Z.Z.S.S.b.D.B i j j j j g h h j j j h w 5 7 7 7 7 5 , , , , , , = o $ @ $ X 8 k k j j j k ",
"e.j.d.k.d.3.i e t r r t f z k k k j v F H H [ H A B v b v b v c j h j j j j y r t t r t w 1 1 1 , 6 , ; = = = = = 6 y r y r r y ",
"A [ [ [ G [ l j k h h k w - - - - - 2 i j i a j p M H 3.[ ;.;.C j h j j j l h k k k h h u 7 7 6 8 8 8 , , , , , , , , : 1 : : 1 ",
"S [ G o.[ [ x j j h h k r 1 , , , 1 5 f h j j j j B [ H G o.[ Z j h h j l j j k h k h j u 5 7 6 6 6 7 , , , , > > , , , , , , , ",
"[ [ G [ [ [ l j j h h k r 1 , , 1 1 4 f k h j l j B O.[ [ ;.[ Z j j j j j j j h h k h k u 7 6 6 6 8 7 1 1 , , , , , , , , , , , ",
"[ o.G [ [ H l j h h h k w : , , , , 1 f h h h j j B H H H [ H C j j j j j j j h h k h k u 7 7 7 6 7 7 1 1 , , , , , , , , , , , ",
"[ [ [ O.O.A l h h h h h w : , , , 1 5 d k k h j j B E P H O.H A j j j j j j j k h k h k u 7 7 7 8 6 7 1 : 1 , , , , : < < 1 , : ",
"L H L L F V z k h h h j r 1 1 1 1 1 5 u f f h h h m F F A F A V j j j j j j f s f f f f u 7 7 6 6 6 6 4 1 1 1 1 < 1 5 5 5 5 5 5 ",
"x x x l z l h h h h j j t 5 6 6 6 6 6 w w 7 7 q q i l l l l l j j h j j j h y w w w w w 7 1 , , , 1 4 u f s f f f N r.r.O.O.r.r.",
"h j j j j j j j j j j j y 6 6 8 6 7 7 7 7 6 5 7 5 i j j j j j h j h j j j h r 5 7 7 7 7 5 , , , , , 1 s k h h j h V D.D.b.b.F.b.",
"h k j j j h j j j j j j u 5 8 8 6 6 6 7 7 7 7 7 q u j j j j j j j j j j j h r 5 7 7 7 7 4 , , , , , 1 s k h j j j B b.b.M.M.S.x.",
"k h j j j j j j h j j l u 5 6 8 6 8 7 7 7 7 7 7 5 u h k j j j j j j j j j h r 7 6 6 6 6 6 , , , , , , s k h j l i B F.b.b.n.M.m.",
"k f j j h h j j k k h j i 5 7 7 7 7 7 7 7 7 7 w 5 s h j h j j h j j j j j h r 7 7 6 8 8 6 , , , , , 1 d k j l j j C C.C.b.b.M.f.",
"k k j j k k k k k f k j e 5 5 5 2 5 2 2 5 5 5 5 5 u h k h h h h h k h k h f r 7 6 6 6 6 6 1 : : : : < u j j j j p C C.F.C.b.F.S.",
"r r t t t r r w r w r w g m m m b m v l l l l l l f e y u y t t r r r t t u 7 1 4 4 4 4 7 w r r r w e m V C C Z C C C B C C C C ",
"5 5 5 5 7 5 1 , , - - - l D.D.Z.D.D.C.O.O.O.E E E j 5 5 7 7 5 7 7 7 5 7 7 7 1 : , , , , 7 f k j k j l y.Z.Z.S.Z.G.F a p j j g i ",
"7 7 7 7 7 6 , , , , , - v D.C.b.b.M.k.;.[ [ H H E j 5 q 7 6 7 7 7 7 7 7 7 6 1 , , , , : 7 h j h j j j 0.Z.Z.Z.Z.S.C j j j j j j ",
"7 7 7 7 7 6 , , , , , - l Z.n.S.M.M.x.o.[ [ [ [ O.g 5 7 7 7 6 7 7 6 7 7 7 6 1 , , , 1 : 7 k j j j j j 0.Z.Z.S.n.S.C a j j j j j ",
"7 7 7 7 7 6 1 , , , , - l Z.S.V.V.M.x.o.[ [ [ H P g 5 q 7 6 6 6 7 6 7 7 7 6 , , , , , : 7 f h j j j j 0.Z.Z.n.n.Z.L j j j h h h ",
"6 6 6 7 7 4 1 : - < : - j S.V.V.x.b.b.[ [ ;.[ H Y g 5 7 6 6 6 6 6 7 7 6 6 7 1 , , , , : 7 f k h g j l O.F.S.Z.Z.Z.C j j j j k h ",
"6 6 6 6 6 5 w q q q 7 q v b.n.x.n.b.k.Z Z Z C V V g 5 7 7 6 6 7 9 w w w w w 1 , , , , 1 7 s f s f f j F y.y.0.y.t.C j j h h k h ",
", , 1 1 , 5 D u.t.t.u.r.O.;.[ [ [ [ Z x j j j j z t 5 7 7 7 6 0 f h h f f f w 7 6 6 6 6 7 w 7 7 7 5 q h l l x x x l h j h j j h ",
", , , , : 1 q.D.Z.Z.D.D.d.G [ ;.[ O.C x j j j j h r 5 7 7 7 7 w f h h h h f w 6 7 6 8 8 7 7 7 7 7 7 7 f j j j j j j j j h h h f ",
", , , , 1 1 E Z.b.b.k.b.d.G [ H [ O.C x j j j h k t 5 7 7 7 6 9 h j j j j h r 7 7 6 6 6 7 7 7 7 7 7 7 f j j j j j j j j j j l j ",
", , , , , 1 E G.x.S.M.M.k.G [ [ [ [ C j j j j h k r 5 7 6 6 7 w h j j j j h r 7 6 6 7 6 7 7 7 7 7 6 7 f j j j j j j j j j j j i ",
", , , , , 1 O.S.M.S.V.n.p.G [ [ [ O.F l j j j h j r 7 7 7 7 5 w h j j j j h w 5 7 7 7 7 7 7 7 7 7 7 7 f k h j j j h j h j j l h ",
", , , , - 1 O.S.V.V.V.M.d.[ [ H %.3.L l j j j h h r 7 7 7 7 5 w h j j j j h w 5 7 6 6 6 7 7 7 7 6 6 7 f j j j j h h j h j h l h "
};
