/* XPM */
static char *_13b45b69deb4621a7b6709b701eb7d87RMEpbI5apXAU7o1[] = {
/* columns rows colors chars-per-pixel */
"64 64 151 2 ",
"   c #404155",
".  c #44435C",
"X  c #49465E",
"o  c #444A5D",
"O  c #4A495F",
"+  c #464763",
"@  c #4A4762",
"#  c #474962",
"$  c #4B4B63",
"%  c #4F4F69",
"&  c #514E65",
"*  c #4E5165",
"=  c #4F5669",
"-  c #525266",
";  c #56546B",
":  c #59556D",
">  c #56586D",
",  c #5B596F",
"<  c #565670",
"1  c #5B5770",
"2  c #575970",
"3  c #5D5B72",
"4  c #625E75",
"5  c #635F78",
"6  c #5F6074",
"7  c #636076",
"8  c #686277",
"9  c #656379",
"0  c #69657B",
"q  c #65697D",
"w  c #6B697E",
"e  c #656A80",
"r  c #6E6B81",
"t  c #726D83",
"y  c #6C7184",
"u  c #747286",
"i  c #797286",
"p  c #767488",
"a  c #7D768B",
"s  c #77788A",
"d  c #7C798D",
"f  c #7E7B90",
"g  c #80778D",
"h  c #80788E",
"j  c #817B91",
"k  c #7D8394",
"l  c #828294",
"z  c #848699",
"x  c #888799",
"c  c #85899B",
"v  c #8A8A9D",
"b  c #878EA0",
"n  c #8C8EA1",
"m  c #908FA1",
"M  c #8D93A4",
"N  c #8F98A7",
"B  c #8F94A8",
"V  c #8F9BAB",
"C  c #9193A5",
"Z  c #9395A9",
"A  c #959EAF",
"S  c #979EAE",
"D  c #969FAE",
"F  c #959DAD",
"G  c #949CAC",
"H  c #989AAF",
"J  c #989FAF",
"K  c #999FAF",
"L  c #999DAE",
"P  c #979CB0",
"I  c #979EB0",
"U  c #969FB0",
"Y  c #979EB0",
"T  c #989DB0",
"R  c #989DB1",
"E  c #999EB1",
"W  c #989FB1",
"Q  c #9B9DB2",
"!  c #9A9FB2",
"~  c #9A9FB3",
"^  c #9A9EB1",
"/  c #92A0AD",
"(  c #95A1AD",
")  c #96A0AC",
"_  c #94A0AE",
"`  c #95A1AF",
"'  c #97A0AF",
"]  c #94A2AF",
"[  c #95A0AE",
"{  c #98A0AD",
"}  c #99A1AE",
"|  c #97A3B1",
" . c #97A7B4",
".. c #95A3B1",
"X. c #99A0B0",
"o. c #98A1B0",
"O. c #9AA0B0",
"+. c #9AA1B1",
"@. c #99A2B1",
"#. c #98A1B2",
"$. c #9BA0B3",
"%. c #9AA1B3",
"&. c #9BA2B2",
"*. c #9AA3B2",
"=. c #99A5B3",
"-. c #9BA4B3",
";. c #9FA1B6",
":. c #99A7B4",
">. c #9AA6B4",
",. c #9BA2B3",
"<. c #9AA8B5",
"1. c #9DA9B7",
"2. c #9BA9B6",
"3. c #9EAAB8",
"4. c #9FABB9",
"5. c #9EACB9",
"6. c #9FADBA",
"7. c #9FAFBC",
"8. c #9EADBB",
"9. c #9EB1BC",
"0. c #A0A3B6",
"q. c #A1ADB9",
"w. c #A0AEB9",
"e. c #A0ACBA",
"r. c #A1ADBB",
"t. c #A1AFBA",
"y. c #A0AEBB",
"u. c #A1AFBC",
"i. c #A2AEBC",
"p. c #A3AFBD",
"a. c #A3ADBC",
"s. c #A9AEBF",
"d. c #A0B0BD",
"f. c #A2B0BD",
"g. c #A1B1BE",
"h. c #A3B1BE",
"j. c #A4B2BD",
"k. c #A4B0BE",
"l. c #A7B0BF",
"z. c #A4B2BF",
"x. c #A2B1BE",
"c. c #A6AFC0",
"v. c #A9AEC2",
"b. c #A5B1C1",
"n. c #A7B3C1",
"m. c #A5B2C2",
"M. c #A7B3C3",
"N. c #A4B1C1",
"B. c #A8B1C2",
"V. c #ACB3C6",
"C. c #A9B1C1",
/* pixels */
"4 9 4 4 9 3 1 : - : - $ f ~ A A G ` G ` ` G A A H q . % $ + + $ - > ; ; ; ; ; : ; ; : - u A A A G ` G h.h.h.7.h.h. .G / A A A G ",
"7 9 4 7 9 4 : ; : : : - f $.A A ` } G G G G I I ~ w   # $ $ + $ 1 > ; ; ; ; : ; 1 ; ; * u ~ A A G / G r.h.h.7.h.h. .G G A A A G ",
"4 4 4 7 3 4 : : : - ; - f X.G A G G G A G G A A I w . # % % $ % ; ; ; : : - : ; - ; : - u ~ G A A ` G r.h.h.h.h.h.<.G G A A A N ",
"4 4 9 9 4 9 : : : ; ; * d $.A A } G A A A A X.A ~ q   # # X @ % : ; : : : : ; : - ; , * p X.A J A ` ` r.h.h.i.i.h.>.G G A A A N ",
"9 5 4 4 4 7 ; - ; ; ; $ d X.G ` A G J A A G A G ~ q   O % O $ $ - : ; ; - ; - : > > ; $ y X.A G G A ` r.h.h.i.i.i.>.A A A A J G ",
"4 4 4 7 4 3 4 3 > 3 3 > k A G G G A } N G G G G Z w O O $ O & & : : - : : ; : ; - ; ; > u G A / A ` X.1.6.r.r.r.l.-.G G G G G Z ",
": 1 : : ; 3 v Z C M M c X.i.r.6.6.r.X.k k f l l z p u p u t t w X & % $ $ % v ;.I ~ I G -.i.r.6.3.6.3.-.| | X.X.X.b k l l l l l ",
": : ; ; - 3 Z ~ ~ A X.A 3.i.h.i.h.n.-.d d d d a s d d d a j j t X # # # # . H V.C.n.n.n.h.i.r.h.l.h.6.` G G A A J c s d d s a s ",
"; ; ; ; ; 3 Z I G A A V >.l.h.h.6.h.-.d d a a g a h d d s a h t . $ # # # . G C.3.7.h.6.6.h.f.h.6.h.6.` G ` A G J v d j d a a h ",
"; ; ; ; ; 3 B I G I G G <.h.h.h.h.l.-.d d h h h a g a d a d h t # % # # # o G n.i.N.h.9.h.h.f.r.h.N.7.| G A A A L v s a a h g g ",
"; ; ; ; ; 3 Z I A ` G G >.i.i.i.i.s.-.d s h h g h g a a a d d t . $ # # # o G n.7.9.9.9.h.i.r.r.i.h.6.` G A A J H v d d a a a g ",
"; ; ; ; ; 3 Z I G G G ` e.l.C.s.C.C.$.d p d a i a a a h d j j t . $ # # O o G M.9.9.h.h.l.i.s.C.s.l.r.X.A J J J L v s s d s a a ",
"< < ; ; ; 3 Z I G G A A N M C C C C C v v v v v v s t t t t t 0 % % & % % $ M e.<.<.<.<.X.M C G G G Z M n n v n v v x v v v v z ",
"< < ; : - 3 Z ~ A A ` G z p p s p p l G X.A A ^ J p 3 4 4 4 5 4 ; ; ; ; ; ; b I G G G G c s s s p p d p p d p d p v L J G H J M ",
"< < : : - 3 Z ~ G A X.A c d d d d d l G A G G A I u 3 7 9 7 5 4 1 : : : : > n A A A A X.n d a a h h h a d d d d d v J J A J } M ",
"< ; ; : - 3 Z ~ I A A A v d a a a d l G A ` ` G A p 3 7 4 4 5 4 : : : ; - ; b ~ A A G J v s a h a a h a a h a d d v J A A A A M ",
"- ; ; , - , Z A G A A ~ c d d d s d h G A A G G G u 3 7 7 7 7 3 ; ; 1 ; ; ; b ~ A A G J v d d d s d a h a h a a p v J A A I ~ M ",
"; > ; , ; 4 Z ^ ~ ~ A ~ v d a d h d l Z J J J $.;.p 3 4 7 4 7 4 1 : 1 ; ; ; n X.J J G L n d d d d d a h a g a d s m ^ A G G ~ M ",
"; ; ; - - 4 c C M M M n l d i h a a l C Z C C C n y 3 4 7 4 4 4 - - - - ; > v G Z G Z G v s a a a s i h g g a d s x Z G G G Z b ",
"; ; : : - & 3 > > > > , w h a h h h u 8 9 7 q 7 w 3 - ; : : : - : : : ; ; - a f d d d h u 4 7 9 q 8 0 a g g a a a u w q q q w q ",
"; ; ; ; : : : ; ; ; ; - w f a g a a i 4 4 6 9 4 4 1 : : ; ; : : - ; : : : - i d s d d d t 4 5 5 4 4 8 i h g g a f r 4 4 7 6 4 3 ",
"; : 1 : ; ; ; : , ; ; - t j a a g h i 7 4 4 4 7 7 1 ; : : - ; : ; ; ; : ; ; i d d h d h t 4 5 5 9 7 9 a h g g a d t 4 7 4 7 7 3 ",
"; ; : : : : : : ; ; : ; r d a j a a i 7 7 7 4 9 7 1 ; ; : ; - ; ; ; ; ; - : i f d h a d t 4 7 5 4 4 9 i a a a h d t 4 9 4 9 9 4 ",
": : ; : : : : ; ; : : - w j h a g j i 5 4 9 4 4 7 3 : ; ; ; ; > ; > > : : : i d a h a d t 4 7 5 7 5 0 a a a a a f w 4 7 4 4 4 4 ",
"; < ; ; : - : - - : - ; w f j a s j u 7 4 4 4 4 3 ; $ $ $ $ $ $ $ - $ * $ - i f d a f f t 4 3 4 4 5 7 a j f d f d t 4 5 5 5 4 7 ",
"% % % % % & 3 4 3 4 3 3 9 0 9 9 7 0 0 t t t t t r l b b b b b c k k l k k f r 9 w w w w w t t t t u w w 0 w w w w 9 3 4 3 3 , 7 ",
"# # # # # $ 4 7 4 7 7 4 3 - - - - - 4 s f d d d d $.C.C.n.C.C.i.X.A ;.^ 0.H 7 & - ; - - 0 d d d j j i , - ; ; - - - - ; ; ; - 9 ",
"$ # # # + # 4 7 4 4 7 4 , : : : : - 4 a d a d d p J s.s.l.l.i.1.A A G G H G 7 - : : : - 0 d s d a d s , - ; : : - - : : : ; - q ",
"# # # # # % 4 4 9 4 4 4 , ; ; ; ; - 4 a d a d d d X.s.i.l.h.i.1.G A A J J G 9 ; : ; : - w f s d a d a , : ; ; ; : ; : ; : : * q ",
"$ $ % # # $ 4 7 7 4 4 9 3 - ; > ; - 5 d j a d d p X.C.i.r.i.h.6.` A A A G G 7 - ; : : - w h s d a a a : ; : ; ; : ; : ; : : - q ",
". .       # 3 4 7 4 4 4 , - - - - & 4 s a s a d s J C.l.h.h.h.6.G G G G X.G 9 - ; ; : - w j h h g j i , ; : ; ; ; ; : : ; ; - 7 ",
"q e q q q 7 q 4 4 7 7 4 9 q q q w q r z c c c z l A -.X.-.-.-.J C G M C G M 7 ; 1 1 : ; 9 i i i i s t : - - - ; ; : 3 3 3 3 , 0 ",
"7.i.i.n.s.-.q 3 4 9 5 3 z ~ G A A G I i.h.i.r.s.a.c p d d d d d s d d d f a 9 4 4 4 4 7 3 : : : ; ; - $ # # # $ . w f a s s s s ",
"N.h.h.i.i.-.q 7 7 7 7 3 c X.A A G G ` 9.h.9.7.h.s.c p d h g g a g d d d d a 9 5 9 9 7 7 3 ; ; - ; ; ; # # # $ $ X r j d g h a d ",
"9.9.h.h.n.-.q 4 7 4 7 3 c I G G G G | h.h.h.h.i.a.c d d h a a g a d d d d a 9 7 4 4 4 7 3 ; : ; ; ; - # # # # $ X w d a g h g h ",
"9.9.h.r.n.-.9 4 7 7 7 , c ~ A A A G | h.h.h.l.s.s.c d d s a a h a d a d d a 9 4 7 4 4 7 3 ; ; ; ; ; ; % # # # $ X w f d a g g g ",
"9.9.l.i.C.-.q 4 7 7 4 , c ~ ~ A A A ` i.i.i.s.s.s.c d d d d a a a a a g h a 9 4 5 4 4 7 3 ; ; ; ; ; ; % # # # $ . w j f a h g g ",
"9.7.l.r.i.~ 0 4 4 7 5 7 c G H G A G X.s.s.s.s.s.a.v s d d s d d d a g g a a w 8 4 4 4 7 3 - - : ; ; ; $ # # # $ # q a f d h h h ",
"....| ` X.A p i p p u t r q w q w q u c c z c c v v v C C C C v d a h g a h t t i i i u w 4 4 4 3 4 3 - % - - - % 3 9 9 9 9 9 9 ",
"G / A A A G d f d d j j 4 $ - - * & 3 p s p s s p C $.J G A } M s a h g a h a j h h d d t 7 4 7 9 9 7 : ; ; ; 1 ; ; - - - - - : ",
"G ` A A A G d d d a a h 9 - ; : ; ; 4 d a f f d d C J A G A J M s a a h a a a g a a a d t 4 7 7 4 5 5 : ; : ; ; ; ; ; : ; : ; : ",
"A J J A A G d a d d a h 9 - ; : ; ; 4 d d d d d s C J J G A A M s g a h g h h a a j d f t 4 4 4 9 9 5 : ; ; ; ; ; ; ; : ; ; ; , ",
"G A G H J Z d s d d a h 9 - ; ; ; - 4 a h a a d s C J A A A A M d a a a a h a a a h a d t 4 4 4 4 4 4 : - : ; ; ; ; ; > > ; ; , ",
"L ^ L L J Z j a d a g a 9 - ; : ; ; 5 a j h d f d C J J J J J C a g g a a h a j h f d d t 4 4 4 9 9 4 : - ; - - - ; - % * * * = ",
"n m m v m v h g d a g g 0 , 3 3 , , 4 t t t u u u v C n M M M v a g h a a a t i i i i i w 4 4 4 3 3 3 5 4 4 4 4 3 w y r y y y y ",
"d d d d d d a g a a g j w 4 5 4 5 5 4 7 5 5 7 4 4 u d d d d d s h h a g a a 9 5 4 4 4 7 3 - ; ; : : 3 s f d s f a Z s.a.s.i.i.3.",
"d d a s d d g h a a g j w 4 9 9 7 9 4 4 4 4 5 4 7 i d d d a a a a a a h h a 9 4 7 5 7 9 3 ; ; ; : - 3 a f d a j s G C.s.c.i.N.7.",
"d d d a d d a a a a g j w 4 5 4 4 7 4 4 7 5 7 5 4 u d d h a a g a a a a a a 9 4 5 4 4 7 3 ; ; ; - ; 3 s a j a d s Z C.r.i.i.7.6.",
"i d a d d a a g i j a j w 4 7 7 4 4 7 7 7 7 7 4 4 i h a j g g h a h a a h a 9 4 4 7 4 7 3 - ; ; ; ; , a g g g d u A C.6.h.7.9.6.",
"a d d d h a h h j d a d w 4 7 4 4 7 7 4 7 7 7 7 7 a h a a h g a a h a g h s 9 4 4 7 9 9 3 ; ; : ; ; , a h a a d s G l.i.n.h.h.6.",
"a d s a a s s i a a f i r 7 7 9 q q 7 6 6 7 7 7 7 u d d a s a d s d a a d s 0 7 7 9 7 4 3 : ; - ; ; , d d d d d s G s.a.e.e.s.e.",
"9 9 9 9 0 7 4 4 , , , > v ;.$.X.;.X.G Z M C C C n p 7 q 0 w w 9 8 0 0 0 0 0 : ; : , : , 0 u i i u u d ~ $.X.X.X.$.M l l c c c l ",
"4 4 4 4 4 4 : - - : ; $ M B.c.C.C.C.e.X.I I ~ ~ G u 3 4 7 4 4 4 4 4 4 4 4 5 ; - ; ; - ; w f d d h f z a.l.l.l.l.s.v p d d s s d ",
"4 4 7 7 9 4 : - ; ; > % B B.s.i.i.i.1.G A A G A H y 3 7 7 7 7 7 7 7 4 5 4 5 : : : : : ; w f a a a a l r.h.h.9.6.s.n s s a h h a ",
"5 4 9 5 5 4 : ; : ; > * M c.s.N.i.h.<.` A A A ~ G y 3 7 7 4 4 4 4 7 5 5 4 5 : : ; : : - w f s a a a l e.h.9.9.7.s.v s h h a g g ",
"5 5 9 4 5 4 , : > > > * M n.i.i.h.h.<.G A A G H G r 3 7 7 7 7 9 4 4 5 7 5 4 : ; ; ; ; - w j a h a s l a.i.7.h.i.s.n s a g g g g ",
"4 9 4 7 4 3 - $ o * o o M n.i.h.i.l.r.G J J H ^ G u 4 4 4 5 4 4 4 4 4 4 4 4 - ; - ; - - w d h h a a c a.C.l.l.C.s.n s a h g g g ",
"3 3 3 3 , 9 l l z z k k G <.>.<.<.1.X.c n v v n v w 4 4 4 4 4 9 t r r r r r 3 3 3 3 3 , 0 t t t t t d Z H G G H H v d d a a g a ",
"- - - : - q a.v.C.s.C.l.| G / G G G M s d s a d f 0 4 4 7 4 5 w d d d d d a 0 7 7 7 4 4 7 5 4 5 4 4 7 d d s d s d s s d d h a i ",
": : : ; - 9 a.c.r.i.i.l.| G ` G A X.C d d d d d s 0 5 7 9 4 5 t d d d d f a 9 4 7 4 7 7 7 4 4 5 7 7 0 d d d h d d d d d s a a t ",
"; : : ; ; q e.i.i.n.r.h.../ G A A J C d a a a a d w 4 4 9 4 4 r j a a h h a 9 4 4 4 7 7 4 4 9 7 4 4 9 a a h h a a d a d d d h i ",
": - : ; * q r.n.r.h.6.h...G A A A J C d d a g a h 0 4 4 7 4 4 w h a a a a a 9 4 7 7 7 4 4 4 5 4 4 7 9 d a a h a a a a h h d d t ",
"; - ; ; * q i.n.N.h.n.n.>.G A I A J C d d a g a a 0 4 7 7 7 4 w h h g g h a 0 5 4 9 4 7 7 4 9 7 4 4 9 d d d h a h h g g a a d u ",
"1 4 1 3 > q >.>.<. .2.>.G V G G G G n s s a a a a 0 7 7 7 7 7 w a a a a a i 7 4 4 4 4 7 4 3 4 5 7 4 7 a s s a a a a g g a a a t "
};
