/* XPM */
static char *db504cc0d22d4dfdf3308d56c88ecd35Su2IDSOMYeq7566D[] = {
/* columns rows colors chars-per-pixel */
"64 64 124 2 ",
"   c #836D5F",
".  c #856F61",
"X  c #867263",
"o  c #8A7466",
"O  c #8D7867",
"+  c #8C7668",
"@  c #8F7869",
"#  c #957E6E",
"$  c #967F71",
"%  c #997F70",
"&  c #95806F",
"*  c #98816F",
"=  c #978070",
"-  c #9A8373",
";  c #9D8877",
":  c #9F8878",
">  c #A08677",
",  c #A18A7A",
"<  c #A5907F",
"1  c #A48E80",
"2  c #A79180",
"3  c #AB9484",
"4  c #AD9887",
"5  c #AC9688",
"6  c #AF9989",
"7  c #B39C8C",
"8  c #B89E8F",
"9  c #B59F91",
"0  c #B5A08F",
"q  c #B6A191",
"w  c #BAA494",
"e  c #BCA897",
"r  c #BCA698",
"t  c #BEA999",
"y  c #C0A999",
"u  c #C0AB9A",
"i  c #C2AB9B",
"p  c #C1AC9B",
"a  c #C3AE9B",
"s  c #C2AD9C",
"d  c #C1AE9D",
"f  c #C3AE9D",
"g  c #C3AD9F",
"h  c #C2AF9E",
"j  c #C4AD9D",
"k  c #C5AE9E",
"l  c #C4AF9E",
"z  c #C6AF9F",
"x  c #C3AE9D",
"c  c #C3B09F",
"v  c #C5B09D",
"b  c #C5B09F",
"n  c #C6B19E",
"m  c #C7B29F",
"M  c #C5B09F",
"N  c #C4AEA0",
"B  c #C5AFA1",
"V  c #C4AFA0",
"C  c #C3B0A1",
"Z  c #C4B1A0",
"A  c #C7B0A0",
"S  c #C6B1A0",
"D  c #C5B2A1",
"F  c #C7B2A1",
"G  c #C4B1A2",
"H  c #C6B0A2",
"J  c #C5B2A3",
"K  c #C6B3A2",
"L  c #C7B4A3",
"P  c #C6B5A3",
"I  c #C6B3A4",
"U  c #C7B6A4",
"Y  c #C6B1A1",
"T  c #C8B1A1",
"R  c #C8B3A0",
"E  c #C9B2A2",
"W  c #C8B3A2",
"Q  c #CAB3A3",
"!  c #C9B4A3",
"~  c #C9B3A5",
"^  c #C8B5A4",
"/  c #CBB4A4",
"(  c #CAB5A4",
")  c #C9B6A5",
"_  c #CBB6A5",
"`  c #C8B5A6",
"'  c #CBB5A7",
"]  c #C9B6A7",
"[  c #CAB7A6",
"{  c #CCB5A5",
"}  c #C9B5A4",
"|  c #C9B8A6",
" . c #CBB8A7",
".. c #CAB9A7",
"X. c #CDB8A7",
"o. c #CBB8A7",
"O. c #CAB7A8",
"+. c #CAB7A8",
"@. c #C9B8A8",
"#. c #CBB8A9",
"$. c #CAB9A9",
"%. c #CBBAA8",
"&. c #CBBAAA",
"*. c #CCB9A8",
"=. c #CEB9A8",
"-. c #CDBAA9",
";. c #CCBBA9",
":. c #CCB9AA",
">. c #CFB9AB",
",. c #CDBAAB",
"<. c #CCBBAB",
"1. c #CEBBAA",
"2. c #CDBCAA",
"3. c #CFBCAB",
"4. c #CEBDAB",
"5. c #CDBEAB",
"6. c #CEBBAC",
"7. c #CDBCAC",
"8. c #CFBCAD",
"9. c #CDBAA9",
"0. c #D0BBAA",
"q. c #D0BDAE",
"w. c #D1BCAB",
"e. c #D5BFB1",
/* pixels */
"; , : , ; ; = = # = = # 4 F l b a b b b F b F l N 3 . + X o + o # = = # = # = # # = = # , f F F c F L _ =.#.#.#.O._ D F c F F b ",
", , , , ; , = = = = # # 6 ! b F b W b b F b F b _ 3   o X X X + = = = # = # = = = = # # , b F F c c F _ #.=.#.#.=.#.F I D F F F ",
"; ; , , : , = # = = # # 4 W f F F F l F F F F F N 2   + o o o + # $ # = = = # = = = = # < F F F F c F _ =.#.#.#.#.O.c F f l b b ",
", , , : : : = = = # = # 6 ! l F F F F F F b l f ~ 3 X o o o o @ = = = = # = # = # # = # , F F F F c F _ =.=.#.#.=.#.F F F F F F ",
": : , ; , , = = = = = # 4 F f f c c F F F W F b F 2 X o + o o + $ $ = = = = = $ = = - # 1 F I F F f D _ =.=.=.=.#._ b W F F F F ",
": , , : , ; # # # # # # 3 F F c f F W b l F F F ! 2 X X o X X o = = - - - # = $ # # # # , f D V c D F _ #.=.=.=.6.#.b F F F F F ",
"- - = = ; ; 6 7 7 7 6 6 e _ _ _ _ _ _ t w e w w t 6 , , , , , , # @ # @ # @ 3 w w w 9 q e O.O._ L _ _ U U U _ _ _ b w e w w e e ",
"# # = = # - t _ F ! F F _ =. .=.=.=.L q 6 7 7 7 7 7 7 7 7 q 7 6 o o o X o X w e.=.w.8.8.=.=.#.=.=.=.#.U D D D D b t 7 7 7 7 7 7 ",
"# = # = = = t F f l F f L 3.=. .U =.#.q 7 0 7 7 7 7 7 7 7 7 7 4 o o o o o X w 8.U #.#.#.#.=.=.=.=.=. .F c c F F F t 7 7 7 7 7 7 ",
"# = # = = = t F F W F c _ =.=.=.8.6.O.q 7 7 7 7 7 7 7 7 7 7 7 4 o + o o o X w 8.#.3.3.#.#.#.#.#.#.=.#.L F F F F F u 7 7 7 7 7 7 ",
"# = # = = = t F F F b l W =.=.=.=.=._ q 7 7 7 7 7 7 7 7 7 7 7 4 o o X o o X w 8.#.#.#.#.#.=.8.=.#.#. .F b b b b l e 7 7 7 7 7 7 ",
"# = # = = = t F F F F F _ =.0.0.=.=.L 0 6 7 7 7 7 7 7 7 7 7 7 7 o o X X X X w 8.#.#.#.3.#.#.#.#.=.=.=.U F F F F [ u 7 7 7 7 7 7 ",
"# = # = = = t F l l b F W W ! _ L U b w 7 q 9 7 q 7 4 4 4 6 7 3 @ @ O O O o q =._  ._ #. .L _ _ ~ ~ W b f f l l u e q 7 q 0 0 0 ",
"# = # = = = t F W F F b t 0 7 7 7 7 q f l F l l l 7 , , , , , : # # & # # # q _ F L c D t q 0 7 9 9 7 7 7 7 7 7 7 q l F F b l l ",
"# = # = = - t W b b b F e 7 7 7 7 7 0 l F F l W _ 7 ; ; , : , : = = = = = # q W l F b F t 7 7 7 7 7 7 7 7 7 7 7 7 q W l F b b b ",
"# = # = = - t W F F F W e 7 7 7 7 7 7 f F W l l W 7 , : , , , ; = # = # = # q F f F F ! u 7 7 7 7 7 7 7 7 7 7 7 7 w W l F F F b ",
"# # # = = = t F f W F b w 7 7 7 7 7 7 f b F F l l 7 ; , , : , ; # = = = = # q W b b b F a 7 7 7 7 7 7 7 7 7 7 7 7 q W l W W F l ",
"= = = = # = t ! b F F ! u 7 7 7 7 7 7 b W F F W ! 0 ; : , , , ; = = # = = # q _ F F F F f 7 7 7 7 7 7 7 7 7 7 7 7 w W l N l l l ",
"= = = # # - e W W W l F t 7 7 7 7 7 q l ! F b F b 7 ; : , , , ; = = # = = # q F l l l F a 7 7 7 7 7 7 7 7 7 7 7 7 w l F W W W l ",
"= # # = = = 3 3 3 3 3 3 4 7 7 7 7 7 7 6 4 6 7 6 6 , = - = = - = = = # = = # 7 e q w q w 0 2 2 2 3 2 2 6 7 7 7 7 7 7 7 4 4 5 7 7 ",
"= = # = = # = # # # # # , 7 7 7 7 7 4 , ; : : - , = # = # # # = = = = = = # 3 7 7 7 7 7 4 ; : ; : , , 4 7 7 7 7 7 3 , ; - ; ; ; ",
"= = # = = # = = = = = # , 7 7 7 7 7 7 , , , , : , = # = # = = = = = = # = # 3 7 7 7 7 7 4 : , , , , , 6 7 7 7 7 7 4 , , , , , , ",
"# # = = = = # # = # # # , 7 7 7 7 7 7 , : : , , , = # = # = # # = = = # = # 3 7 7 7 7 7 6 , , , : , : 6 7 7 7 7 7 4 ; : : , , , ",
"= = = # = = # = = = = # , 7 7 7 7 7 7 , , , , : , - = = # = = = = = = = = # 3 7 7 7 7 7 4 : , , , , : 4 7 7 7 7 7 4 : , , , : , ",
"# # = = = # = # # = # # , 7 7 7 7 7 7 , : : ; : ; = # # # # # # # # # = # # 3 7 7 7 7 q 4 , ; : ; ; ; 6 7 7 7 7 7 4 , : , , : , ",
"# # # # # # = = = = = = , 4 4 4 4 4 3 2 , , , , , 2 2 , < < < 2 , , , , , , 3 4 4 4 3 4 3 2 , , , 2 , 3 3 4 4 4 3 , : ; : : ; : ",
"o o o o o o ; : , , , ; ; = # = = # ; 4 7 7 7 7 7 f X.=.=.=.=._ F f l l W l 3 # # # # = : 6 7 7 7 7 4 , # = # # = = # # = # # = ",
"o o o o o o ; , , ; , , - = # # = # = 4 7 7 7 7 7 f 0.0. .=.=. .F F W l F W 3 # = = = # ; 7 7 7 7 7 7 , # = = = # = = = = = = = ",
"o o o o o o ; , , : , , - = = # = # = 7 7 7 7 7 7 f =.=. . . . .b F W F F b 3 # = = = # ; 7 7 7 7 7 7 : # = # = # = = = = # # = ",
"X o o o o o ; , ; : : : = = = # # # - 7 7 7 7 7 6 a #.=.=.=.=.#.F F f F F F 4 # = # = = : 7 7 7 7 7 7 : = = # = = = = = = # # = ",
"o + o o o o - , , , , , ; = = = = = = 6 7 7 7 7 7 f =._ U  . . .l F F ! b l 2 # = = # = ; 7 7 7 7 7 7 ; # # = = = = # # = # # = ",
"X X X X o o - , : , ; , ; # # # # & = 7 7 7 7 7 6 f 3.=.=.=.=._ F F b F b W 3 # = = # # ; 7 7 7 7 7 7 , = # = = = = # # = = # = ",
"e t e t t t < ; ; , , : 3 e e e w w w F F D F F F t q e w w w w 7 q q q q q 2 ; - ; ; ; ; ; : : ; ; ; # + + + @ o = 5 3 3 3 3 3 ",
"3.3.3.3.=. .3 : , , , : 7 ! F l L L L 3.#.#.=.=.3.t 6 7 7 7 7 7 7 7 7 7 7 7 3 : , , , , ; = # # & * = o o o o o o - 7 7 7 7 7 7 ",
"#. .#.#.=. .2 - , , , ; 7 _ F b c F F  . .#.=.=.=.t 6 7 7 7 7 7 7 7 7 7 7 7 , : : , : , ; = = # # = # o o o o o X - 7 7 7 7 7 7 ",
"#. .3. . . .3 : : , , ; 7 F f F c F F =. .=.=. .=.t 7 7 7 7 7 7 7 7 7 7 7 7 2 ; : , : , ; = = = # = # o o o o o o - 7 7 7 7 7 7 ",
"#. .3.#.X._ 3 : , , , ; 7 W b F F F F X._  . ._ =.t 7 7 7 7 7 7 7 7 7 7 7 7 3 , , , , , ; # # # # = # o o o o o X - 7 7 7 7 7 7 ",
"#. .=.=.=.[ 3 ; , , ; ; 7 _ _ b ! W F 0.=.=.3.=.=.t 6 7 7 7 7 7 7 7 7 7 7 7 , , ; : ; , ; # # = = = = @ o o o o . - 7 7 7 7 7 7 ",
" . . ._ _ ! 4 , , , , 3 7 q w q q q q b F b b b F t 0 q q q q q 7 7 7 7 7 7 3 , 2 2 , 3 , - = = = = = # o @ + @ @ - 3 3 3 3 3 3 ",
"c D D c b W 7 7 7 7 7 7 , # # & # # - 4 7 7 7 7 7 t F _ b W W f 7 7 7 7 7 7 7 7 7 7 7 7 4 , , : , , , = # = = = $ $ - # # = # = ",
"f c F F F b 7 7 7 7 7 7 2 # # = # = = 7 7 7 7 7 7 e F F F F b f 7 7 7 7 7 7 7 7 7 7 7 7 4 , : , ; , , = # # = = # = # = & = = # ",
"F F F F F b 7 7 7 7 7 7 2 # # = = = = 7 7 7 7 7 7 t F F F F F l 7 7 7 7 7 7 7 7 7 7 7 7 4 , : , , , , ; = = = = = = # = # # = = ",
"F F F b F l 7 7 7 7 7 7 2 # # = # # = 6 7 7 7 7 7 t F F F F b l 7 7 7 7 7 7 7 7 7 7 7 7 4 , : , , ; ; = = = # = # = # = & = = = ",
"l b b F F l q 7 7 7 7 7 , # # = = # - 6 7 7 7 7 7 t F F F F b l 7 7 7 7 7 7 7 7 7 7 7 7 4 , : , : , , = # = = = = = = = = = = = ",
"b F b F l l q 7 7 7 7 7 2 = = = # # - 4 7 7 7 7 7 e b b l b l f 7 7 7 7 7 7 7 6 7 7 7 7 4 , , , , : , - = = # = # # = = = = = = ",
"q q 0 q 7 q 7 7 7 7 7 7 3 ; ; ; : ; : , , , , , , 6 q q q q q 0 7 7 7 7 7 7 3 , , , , , , = = = = = - , 4 4 4 6 7 q l l b b f f ",
"7 7 7 7 7 7 7 7 7 7 7 7 3 : , , , : : : : ; ; : ; 3 7 7 7 7 7 7 7 7 7 7 7 7 3 ; , , , , ; = = = = # = 4 q 7 7 7 6 e =.=.3.=.=.=.",
"7 7 7 7 7 7 7 7 7 7 7 7 3 : , : : , , : , , , , : 4 7 7 7 7 7 7 7 7 7 7 7 7 3 ; , , : , ; = = = # = = 3 7 7 7 7 7 t w. ._  .#.=.",
"7 7 7 7 7 7 7 7 7 7 7 7 3 : , , : : : : , : : , ; 4 7 7 7 7 7 7 7 7 7 7 7 7 3 , ; : , : ; = = # # = # 3 7 7 7 7 6 r =.=.=.#.=.#.",
"7 7 7 7 7 7 7 7 8 7 7 7 4 , : : , , , , , , , , : 4 7 7 7 7 7 7 7 7 7 7 7 7 , ; , : , , ; # # = = = = 4 7 7 7 7 7 t #.O.#.#.#.#.",
"7 7 7 7 7 7 7 7 7 7 0 7 2 ; ; ; - ; ; - - - ; ; ; 3 7 7 7 7 7 7 7 7 7 7 7 7 3 , , , , : ; # # # # # # 3 7 7 7 7 6 w #.=.6.6.6.=.",
"3 3 3 3 4 3 3 3 3 3 3 , 3 q q 7 0 0 0 7 7 7 7 7 7 7 3 3 3 3 3 3 3 3 3 3 3 3 , - - = - - : , , , , , , q u t u t t a D V f f V D ",
"; : ; ; : ; = = # # # # 7 w.w.=.=.=.X._ W W W W W 7 ; : , , , , , : : , : , = # # # = = , 7 7 7 7 7 7 W 0.=.=.=.=.f 7 6 6 7 7 7 ",
", , , , , : = # # = = # 7 0._ X.=.=.[ W b b l l W 7 - , , , ; , , : : , ; , = = = = = # : 7 7 7 7 7 7 F =. .=. .w.f 7 6 7 7 7 7 ",
", , , , , ; = # = = = # 7 w. .3.=.=. .F F F F b W 7 ; , : : ; , , , , , , , = = # = # # ; 7 7 7 7 7 7 F =.#.#. .=.f 7 7 7 7 7 7 ",
", , : : , ; = $ = & = # 6 w._  . .=._ F b F F b W 7 ; , : , : : : : , , , , = # = = = = ; 7 7 7 7 9 7 F =.#.=. .=.f 7 7 7 7 7 7 ",
"> , , , : ; = # # & = # 6 =. .#._  .=.c F F F F W 7 ; : , , , , ; , , , ; , = # # # = # : 7 7 7 7 7 9 I =.=.=.=.=.f 7 7 7 7 7 7 ",
", , ; : : ; : - : ; = - 7 =. .=.=.=.=.f l l l f l 7 : , , : ; ; , , , , , , = # = = = = , 4 7 7 7 7 7 N _ _ _ _ _ f 7 7 7 7 8 7 ",
"# % = = = ; e W F L L F F L D F c c f q 7 7 7 7 q 3 ; , , , , , 7 7 7 7 7 7 2 , : : : ; : , , , , , , 7 q q q q 0 0 6 7 7 7 7 7 ",
"= = = # & - F w.=.=.=.=._ D D D F F f 0 7 7 7 7 7 3 ; , , , : , 7 7 7 7 7 7 2 : , , , , : , : ; : : : 6 7 7 7 7 7 7 7 7 7 7 7 7 ",
"= # # # = - F _ #.#._ #._ F ~ N F F f 7 7 7 7 7 7 3 : , : : ; , 7 7 7 7 7 7 2 ; : , , , , , , , , , : 6 7 7 7 7 7 7 7 7 7 7 7 7 ",
"# = = = # = F =._ =.6.8._ V F V b F f 7 7 7 7 7 7 3 : , : , : , 7 7 7 7 7 7 2 ; , , , , , : , , , , : 4 7 7 7 7 7 7 7 7 7 7 7 7 ",
"= = = = = - F =._ =.O.=._ D F N b F l 7 7 7 7 7 7 3 , , : , ; , 7 7 7 7 7 7 2 : : , : , , : , , , : ; 4 7 7 7 7 7 7 7 7 7 7 7 7 ",
"= = # = # - c =.#.=.=.=._ D F F b F l 0 7 7 7 7 7 3 , , , , ; , 7 7 7 7 7 7 2 , : , , , , : , : , , : 6 7 7 7 7 7 7 7 7 7 7 7 7 "
};
